<?xml version="1.0" encoding="UTF-8"?>
<svg width="10px" height="10px" viewBox="0 0 10 10" version="1.1" xmlns="http://www.w3.org/2000/svg" xmlns:xlink="http://www.w3.org/1999/xlink">
    <title>形状备份 3</title>
    <g id="基本资料" stroke="none" stroke-width="1" fill="none" fill-rule="evenodd">
        <g id="1-8-基本资料-评价面板不用维度样式" transform="translate(-427.000000, -674.000000)" fill="#00BF80" fill-rule="nonzero">
            <g id="编组-14备份-2" transform="translate(358.000000, 665.000000)">
                <g id="开始" transform="translate(69.000000, 9.000000)">
                    <path d="M5,10 C2.238575,10 0,7.7614 0,5 C0,2.238575 2.238575,0 5,0 C7.7614,0 10,2.238575 10,5 C9.99695,7.76015 7.76015,9.99695 5,10 Z M1,5 C1.02366,7.24365842 2.820555,9.01180842 5,9 C7.222,8.98815842 8.99975,7.20080842 9,5 C8.99975,2.79931342 7.222,1.01194342 5,1 C2.820555,0.988288422 1.02366,2.75643842 1,5 L1,5 Z M4,7 L4,2.66666667 L7,5 L4,7 Z" id="形状备份"></path>
                </g>
            </g>
        </g>
    </g>
</svg>